<?xml version="1.0" encoding="UTF-8" standalone="no"?>
<!-- Created with Inkscape (http://www.inkscape.org/) -->

<svg
   width="496mm"
   height="496mm"
   viewBox="0 0 496 496"
   version="1.1"
   id="svg1"
   xml:space="preserve"
   inkscape:version="1.4.2 (ebf0e940d0, 2025-05-08)"
   sodipodi:docname="logo.svg"
   xmlns:inkscape="http://www.inkscape.org/namespaces/inkscape"
   xmlns:sodipodi="http://sodipodi.sourceforge.net/DTD/sodipodi-0.dtd"
   xmlns="http://www.w3.org/2000/svg"
   xmlns:svg="http://www.w3.org/2000/svg"><sodipodi:namedview
     id="namedview1"
     pagecolor="#505050"
     bordercolor="#eeeeee"
     borderopacity="1"
     inkscape:showpageshadow="0"
     inkscape:pageopacity="0"
     inkscape:pagecheckerboard="0"
     inkscape:deskcolor="#d1d1d1"
     inkscape:document-units="mm"
     inkscape:zoom="0.2994111"
     inkscape:cx="589.49051"
     inkscape:cy="1043.7155"
     inkscape:window-width="1904"
     inkscape:window-height="1023"
     inkscape:window-x="0"
     inkscape:window-y="0"
     inkscape:window-maximized="0"
     inkscape:current-layer="layer2" /><defs
     id="defs1"><radialGradient
       id="b"
       cx="-9227.1865"
       cy="-9815.1211"
       r="80.796997"
       gradientTransform="matrix(6.201,0,0,6.2,57644.994,60908.8)"
       gradientUnits="userSpaceOnUse"><stop
         offset=".108"
         stop-color="#3fe1b0"
         id="stop1" /><stop
         offset=".122"
         stop-color="#3bdcb3"
         id="stop2" /><stop
         offset=".254"
         stop-color="#1bb3d3"
         id="stop3" /><stop
         offset=".358"
         stop-color="#0799e6"
         id="stop4" /><stop
         offset=".42"
         stop-color="#0090ed"
         id="stop5" /><stop
         offset=".487"
         stop-color="#2482f1"
         id="stop6" /><stop
         offset=".64"
         stop-color="#7165fb"
         id="stop7" /><stop
         offset=".71"
         stop-color="#9059ff"
         id="stop8" /><stop
         offset=".795"
         stop-color="#7d49ed"
         id="stop9" /><stop
         offset=".86"
         stop-color="#7542e5"
         id="stop10" /></radialGradient><radialGradient
       id="c"
       cx="-9256.7109"
       cy="-9782.0889"
       r="80.796997"
       gradientTransform="matrix(6.201,0,0,6.2,57644.994,60908.8)"
       gradientUnits="userSpaceOnUse"><stop
         offset=".3"
         stop-color="#45278d"
         id="stop11" /><stop
         offset=".341"
         stop-color="#562896"
         stop-opacity=".787"
         id="stop12" /><stop
         offset=".43"
         stop-color="#782aa9"
         stop-opacity=".364"
         id="stop13" /><stop
         offset=".495"
         stop-color="#8d2bb5"
         stop-opacity=".1"
         id="stop14" /><stop
         offset=".53"
         stop-color="#952bb9"
         stop-opacity="0"
         id="stop15" /></radialGradient><radialGradient
       id="d"
       cx="-9246.9697"
       cy="-9833.457"
       r="58.534"
       gradientTransform="matrix(6.201,0,0,6.2,57644.994,60908.8)"
       gradientUnits="userSpaceOnUse"><stop
         offset=".132"
         stop-color="#3fe1b0"
         id="stop16" /><stop
         offset=".289"
         stop-color="#28d0c8"
         id="stop17" /><stop
         offset=".526"
         stop-color="#00b3f4"
         id="stop18" /></radialGradient><radialGradient
       id="e"
       cx="-9265.6484"
       cy="-9760.9844"
       r="38.471001"
       gradientTransform="matrix(6.201,0,0,6.2,57644.994,60908.8)"
       gradientUnits="userSpaceOnUse"><stop
         offset=".287"
         stop-color="#0060df"
         id="stop19" /><stop
         offset=".417"
         stop-color="#2357e1"
         id="stop20" /><stop
         offset=".604"
         stop-color="#4f4ce3"
         id="stop21" /><stop
         offset=".748"
         stop-color="#6b45e4"
         id="stop22" /><stop
         offset=".833"
         stop-color="#7542e5"
         id="stop23" /></radialGradient><radialGradient
       id="f"
       cx="-9255.6201"
       cy="-9791.5459"
       r="20.396999"
       gradientTransform="matrix(6.027,-1.458,1.708,7.059,72758.651,55821.181)"
       gradientUnits="userSpaceOnUse"><stop
         offset=".206"
         stop-color="#45278d"
         stop-opacity="0"
         id="stop24" /><stop
         offset=".251"
         stop-color="#44268a"
         stop-opacity=".055"
         id="stop25" /><stop
         offset=".725"
         stop-color="#371f6f"
         stop-opacity=".591"
         id="stop26" /><stop
         offset=".956"
         stop-color="#321c64"
         stop-opacity=".8"
         id="stop27" /></radialGradient><radialGradient
       id="g"
       cx="-9257.7314"
       cy="-9818.4268"
       r="27.676001"
       gradientTransform="matrix(6.201,0,0,6.2,57644.994,60908.8)"
       gradientUnits="userSpaceOnUse"><stop
         offset="0"
         stop-color="#0df"
         id="stop28" /><stop
         offset=".235"
         stop-color="#00d6fd"
         id="stop29" /><stop
         offset=".572"
         stop-color="#00c3f8"
         id="stop30" /><stop
         offset=".792"
         stop-color="#00b3f4"
         id="stop31" /></radialGradient><radialGradient
       id="h"
       cx="-9235.9766"
       cy="-9835.9814"
       r="118.081"
       gradientTransform="matrix(6.201,0,0,6.2,57644.994,60908.8)"
       gradientUnits="userSpaceOnUse"><stop
         offset=".126"
         stop-color="#3fe1b0"
         id="stop32" /><stop
         offset=".429"
         stop-color="#0df"
         id="stop33" /><stop
         offset=".479"
         stop-color="#1ec1ff"
         id="stop34" /><stop
         offset=".624"
         stop-color="#7077ff"
         id="stop35" /><stop
         offset=".69"
         stop-color="#9059ff"
         id="stop36" /><stop
         offset=".904"
         stop-color="#b833e1"
         id="stop37" /></radialGradient><radialGradient
       id="i"
       cx="-9247.165"
       cy="-9822.8594"
       r="86.499001"
       gradientTransform="matrix(0.649,6.166,-4.046,0.426,-33440.427,61207.861)"
       gradientUnits="userSpaceOnUse"><stop
         offset="0"
         stop-color="#54ffbd"
         id="stop38" /><stop
         offset=".095"
         stop-color="#4cf3b8"
         id="stop39" /><stop
         offset=".197"
         stop-color="#3fe1b0"
         id="stop40" /><stop
         offset=".257"
         stop-color="#33d8bd"
         id="stop41" /><stop
         offset=".369"
         stop-color="#12c0e1"
         id="stop42" /><stop
         offset=".423"
         stop-color="#00b3f4"
         id="stop43" /><stop
         offset=".737"
         stop-color="#0060df"
         id="stop44" /></radialGradient><radialGradient
       id="j"
       cx="-9258.3828"
       cy="-9808.1758"
       r="73.720001"
       gradientTransform="matrix(6.201,0,0,6.2,57644.994,60908.8)"
       gradientUnits="userSpaceOnUse"><stop
         offset=".137"
         stop-color="#3fe1b0"
         id="stop45" /><stop
         offset=".435"
         stop-color="#0df"
         id="stop46" /><stop
         offset=".484"
         stop-color="#1ec1ff"
         id="stop47" /><stop
         offset=".622"
         stop-color="#7077ff"
         id="stop48" /><stop
         offset=".685"
         stop-color="#9059ff"
         id="stop49" /></radialGradient><radialGradient
       id="k"
       cx="-9238.9229"
       cy="-9803.8613"
       r="80.685997"
       gradientTransform="matrix(6.201,0,0,6.2,57644.994,60908.8)"
       gradientUnits="userSpaceOnUse"><stop
         offset=".094"
         stop-color="#54ffbd"
         id="stop50" /><stop
         offset=".242"
         stop-color="#41f7cc"
         id="stop51" /><stop
         offset=".543"
         stop-color="#0fe3f3"
         id="stop52" /><stop
         offset=".626"
         stop-color="#0df"
         id="stop53" /></radialGradient><linearGradient
       id="a"
       x1="471.79999"
       y1="127.352"
       x2="55.983002"
       y2="389.284"
       gradientUnits="userSpaceOnUse"><stop
         offset="0"
         stop-color="#3fe1b0"
         id="stop54" /><stop
         offset=".406"
         stop-color="#00b3f4"
         id="stop55" /><stop
         offset=".421"
         stop-color="#03b0f4"
         id="stop56" /><stop
         offset=".818"
         stop-color="#5561e9"
         id="stop57" /><stop
         offset="1"
         stop-color="#7542e5"
         id="stop58" /></linearGradient><linearGradient
       id="l"
       x1="442.08401"
       y1="74.772003"
       x2="102.645"
       y2="414.20999"
       gradientUnits="userSpaceOnUse"><stop
         offset=".167"
         stop-color="#54ffbd"
         stop-opacity=".8"
         id="stop59" /><stop
         offset=".236"
         stop-color="#43f8ca"
         stop-opacity=".639"
         id="stop60" /><stop
         offset=".361"
         stop-color="#27ede1"
         stop-opacity=".368"
         id="stop61" /><stop
         offset=".466"
         stop-color="#12e4f1"
         stop-opacity=".169"
         id="stop62" /><stop
         offset=".545"
         stop-color="#05dffb"
         stop-opacity=".046"
         id="stop63" /><stop
         offset=".589"
         stop-color="#0df"
         stop-opacity="0"
         id="stop64" /></linearGradient><linearGradient
       gradientUnits="userSpaceOnUse"
       id="linear-gradient-44584babfef90c4cb32c8ee42b1193ba"
       x1="-319.9999999999999"
       x2="127.99999999999996"
       y1="-554.2562584220408"
       y2="221.70250336881628"><stop
         offset="0%"
         stop-color="#9e0000"
         id="stop1-1" /><stop
         offset="25%"
         stop-color="#af0000"
         id="stop2-2" /><stop
         offset="100%"
         stop-color="#c10100"
         id="stop3-8" /></linearGradient><linearGradient
       gradientUnits="userSpaceOnUse"
       id="linear-gradient-96af2d924a4fbf5b015c244addc578a8"
       x1="-319.9999999999999"
       x2="127.99999999999996"
       y1="-554.2562584220408"
       y2="221.70250336881628"><stop
         offset="0%"
         stop-color="#dc5500"
         id="stop4-9" /><stop
         offset="25%"
         stop-color="#ee5e00"
         id="stop5-3" /><stop
         offset="100%"
         stop-color="#ff6705"
         id="stop6-6" /></linearGradient><linearGradient
       gradientUnits="userSpaceOnUse"
       id="linear-gradient-33ff75d118a188d564af252422e7cc92"
       x1="-319.9999999999999"
       x2="127.99999999999996"
       y1="-554.2562584220408"
       y2="221.70250336881628"><stop
         offset="0%"
         stop-color="#db9917"
         id="stop7-8" /><stop
         offset="25%"
         stop-color="#eca412"
         id="stop8-0" /><stop
         offset="100%"
         stop-color="#fdb00b"
         id="stop9-2" /></linearGradient><linearGradient
       gradientUnits="userSpaceOnUse"
       id="linear-gradient-2a0b6b52f041088f95dc76196e6b4d88"
       x1="-319.9999999999999"
       x2="127.99999999999996"
       y1="-554.2562584220408"
       y2="221.70250336881628"><stop
         offset="0%"
         stop-color="#007f2d"
         id="stop10-1" /><stop
         offset="25%"
         stop-color="#008d34"
         id="stop11-0" /><stop
         offset="100%"
         stop-color="#029b3b"
         id="stop12-5" /></linearGradient><linearGradient
       gradientUnits="userSpaceOnUse"
       id="linear-gradient-c6751d2115edfa2506ed6789e247b928"
       x1="-319.9999999999999"
       x2="127.99999999999996"
       y1="-554.2562584220408"
       y2="221.70250336881628"><stop
         offset="0"
         stop-color="#0270a8"
         id="stop13-1"
         style="stop-color:#0270a8;stop-opacity:0.69999999;" /><stop
         offset="0.25"
         stop-color="#007cba"
         id="stop14-1"
         style="stop-color:#007cba;stop-opacity:0.69999999;" /><stop
         offset="1"
         stop-color="#0088cc"
         id="stop15-0"
         style="stop-color:#0088cc;stop-opacity:0.89999998;" /></linearGradient><linearGradient
       gradientUnits="userSpaceOnUse"
       id="linear-gradient-6b2d1737e4a2ebfe17f3769056568c22"
       x1="-319.9999999999999"
       x2="127.99999999999996"
       y1="-554.2562584220408"
       y2="221.70250336881628"><stop
         offset="0"
         stop-color="#452397"
         id="stop16-8"
         style="stop-color:#452397;stop-opacity:0.69999999;" /><stop
         offset="0.25"
         stop-color="#4f2da8"
         id="stop17-5"
         style="stop-color:#4f2da8;stop-opacity:0.69999999;" /><stop
         offset="1"
         stop-color="#5a37bb"
         id="stop18-0"
         style="stop-color:#5a37bb;stop-opacity:0.89999998;" /></linearGradient><linearGradient
       gradientUnits="userSpaceOnUse"
       id="linear-gradient-44584babfef90c4cb32c8ee42b1193ba-4"
       x1="-319.9999999999999"
       x2="127.99999999999996"
       y1="-554.2562584220408"
       y2="221.70250336881628"><stop
         offset="0%"
         stop-color="#9e0000"
         id="stop1-6" /><stop
         offset="25%"
         stop-color="#af0000"
         id="stop2-25" /><stop
         offset="100%"
         stop-color="#c10100"
         id="stop3-86" /></linearGradient><linearGradient
       gradientUnits="userSpaceOnUse"
       id="linear-gradient-96af2d924a4fbf5b015c244addc578a8-2"
       x1="-319.9999999999999"
       x2="127.99999999999996"
       y1="-554.2562584220408"
       y2="221.70250336881628"><stop
         offset="0%"
         stop-color="#dc5500"
         id="stop4-8" /><stop
         offset="25%"
         stop-color="#ee5e00"
         id="stop5-4" /><stop
         offset="100%"
         stop-color="#ff6705"
         id="stop6-7" /></linearGradient><linearGradient
       gradientUnits="userSpaceOnUse"
       id="linear-gradient-33ff75d118a188d564af252422e7cc92-2"
       x1="-319.9999999999999"
       x2="127.99999999999996"
       y1="-554.2562584220408"
       y2="221.70250336881628"><stop
         offset="0%"
         stop-color="#db9917"
         id="stop7-4" /><stop
         offset="25%"
         stop-color="#eca412"
         id="stop8-06" /><stop
         offset="100%"
         stop-color="#fdb00b"
         id="stop9-29" /></linearGradient><linearGradient
       gradientUnits="userSpaceOnUse"
       id="linear-gradient-2a0b6b52f041088f95dc76196e6b4d88-9"
       x1="-319.9999999999999"
       x2="127.99999999999996"
       y1="-554.2562584220408"
       y2="221.70250336881628"><stop
         offset="0%"
         stop-color="#007f2d"
         id="stop10-0" /><stop
         offset="25%"
         stop-color="#008d34"
         id="stop11-8" /><stop
         offset="100%"
         stop-color="#029b3b"
         id="stop12-1" /></linearGradient><linearGradient
       gradientUnits="userSpaceOnUse"
       id="linear-gradient-c6751d2115edfa2506ed6789e247b928-3"
       x1="-319.9999999999999"
       x2="127.99999999999996"
       y1="-554.2562584220408"
       y2="221.70250336881628"><stop
         offset="0%"
         stop-color="#0270a8"
         id="stop13-11" /><stop
         offset="25%"
         stop-color="#007cba"
         id="stop14-0" /><stop
         offset="100%"
         stop-color="#0088cc"
         id="stop15-3" /></linearGradient><linearGradient
       gradientUnits="userSpaceOnUse"
       id="linear-gradient-6b2d1737e4a2ebfe17f3769056568c22-4"
       x1="-319.9999999999999"
       x2="127.99999999999996"
       y1="-554.2562584220408"
       y2="221.70250336881628"><stop
         offset="0%"
         stop-color="#452397"
         id="stop16-0" /><stop
         offset="25%"
         stop-color="#4f2da8"
         id="stop17-3" /><stop
         offset="100%"
         stop-color="#5a37bb"
         id="stop18-9" /></linearGradient></defs><g
     inkscape:label="Layer 1"
     inkscape:groupmode="layer"
     id="layer1"
     transform="matrix(0.98979591,0,0,0.98979591,0.05102045,0.05102044)"><g
       id="g1"
       transform="matrix(1.0208255,0,0,0.98790582,-11.329125,4.9987119)"
       inkscape:label="Firefox"><path
         id="shape-base"
         d="m 478.711,166.353 c -10.445,-25.124 -31.6,-52.248 -48.212,-60.821 13.52,26.505 21.345,53.093 24.335,72.936 0,0.039 0.015,0.136 0.047,0.4 C 427.706,111.135 381.627,83.823 344,24.355 c -1.9,-3.007 -3.805,-6.022 -5.661,-9.2 a 73.716,73.716 0 0 1 -2.646,-4.972 43.7,43.7 0 0 1 -3.593,-9.506 0.626,0.626 0 0 0 -0.546,-0.644 0.818,0.818 0 0 0 -0.451,0 c -0.034,0.012 -0.084,0.051 -0.12,0.065 -0.053,0.021 -0.12,0.069 -0.176,0.1 0.027,-0.036 0.083,-0.117 0.1,-0.136 -60.37,35.356 -80.85,100.761 -82.732,133.484 a 120.249,120.249 0 0 0 -66.142,25.488 71.355,71.355 0 0 0 -6.225,-4.7 111.338,111.338 0 0 1 -0.674,-58.732 c -24.688,11.241 -43.89,29.01 -57.85,44.7 h -0.111 c -9.527,-12.067 -8.855,-51.873 -8.312,-60.184 -0.114,-0.515 -7.107,3.63 -8.023,4.255 a 175.073,175.073 0 0 0 -23.486,20.12 210.478,210.478 0 0 0 -22.442,26.913 c 0,0.012 -0.007,0.026 -0.011,0.038 0,-0.013 0.007,-0.026 0.011,-0.038 a 202.838,202.838 0 0 0 -32.247,72.805 c -0.115,0.521 -0.212,1.061 -0.324,1.586 -0.452,2.116 -2.08,12.7 -2.365,15 -0.022,0.177 -0.032,0.347 -0.053,0.524 a 229.066,229.066 0 0 0 -3.9,33.157 c 0,0.41 -0.025,0.816 -0.025,1.227 C 16,388.418 123.6,496 256.324,496 c 118.865,0 217.56,-86.288 236.882,-199.63 0.407,-3.076 0.733,-6.168 1.092,-9.271 4.777,-41.21 -0.53,-84.525 -15.587,-120.746 z M 201.716,354.447 c 1.124,0.537 2.18,1.124 3.334,1.639 0.048,0.033 0.114,0.07 0.163,0.1 a 126.191,126.191 0 0 1 -3.497,-1.739 z m 55.053,-144.93 z m 198.131,-30.59 -0.032,-0.233 c 0.012,0.085 0.027,0.174 0.04,0.259 z"
         fill="url(#a)"
         style="fill:url(#a)" /><path
         id="globe-base"
         d="m 256.772,209.514 c -0.393,5.978 -21.514,26.593 -28.9,26.593 -68.339,0 -79.432,41.335 -79.432,41.335 3.027,34.81 27.261,63.475 56.611,78.643 1.339,0.692 2.694,1.317 4.05,1.935 a 132.768,132.768 0 0 0 7.059,2.886 106.743,106.743 0 0 0 31.271,6.031 c 119.78,5.618 142.986,-143.194 56.545,-186.408 22.137,-3.85 45.115,5.053 57.947,14.067 -21.012,-36.714 -60.25,-61.484 -105.3,-61.484 -2.85,0 -5.641,0.235 -8.442,0.429 a 120.249,120.249 0 0 0 -66.142,25.488 c 3.664,3.1 7.8,7.244 16.514,15.828 16.302,16.067 58.13,32.705 58.219,34.657 z"
         fill="url(#e)"
         style="fill:url(#e)" /><path
         id="globe-shadow"
         d="m 256.772,209.514 c -0.393,5.978 -21.514,26.593 -28.9,26.593 -68.339,0 -79.432,41.335 -79.432,41.335 3.027,34.81 27.261,63.475 56.611,78.643 1.339,0.692 2.694,1.317 4.05,1.935 a 132.768,132.768 0 0 0 7.059,2.886 106.743,106.743 0 0 0 31.271,6.031 c 119.78,5.618 142.986,-143.194 56.545,-186.408 22.137,-3.85 45.115,5.053 57.947,14.067 -21.012,-36.714 -60.25,-61.484 -105.3,-61.484 -2.85,0 -5.641,0.235 -8.442,0.429 a 120.249,120.249 0 0 0 -66.142,25.488 c 3.664,3.1 7.8,7.244 16.514,15.828 16.302,16.067 58.13,32.705 58.219,34.657 z"
         fill="url(#f)"
         style="fill:url(#f)"
         inkscape:label="globe-shadow" /></g><g
       id="g66"
       transform="matrix(0.09458724,0,0,0.11584593,249.1665,252.076)"
       inkscape:label="Nix"><polygon
         fill="url(#linear-gradient-44584babfef90c4cb32c8ee42b1193ba)"
         points="-304,-304.84094 -176,-526.54345 384,443.40501 128,443.40501 -4.0726089e-14,221.7025 -128,443.40501 -256,443.40501 -320,332.55376 -128,0 "
         transform="translate(-320,554.25626)"
         id="polygon18"
         style="fill:url(#linear-gradient-44584babfef90c4cb32c8ee42b1193ba-4)" /><polygon
         fill="url(#linear-gradient-96af2d924a4fbf5b015c244addc578a8)"
         points="-304,-304.84094 -176,-526.54345 384,443.40501 128,443.40501 -4.0726089e-14,221.7025 -128,443.40501 -256,443.40501 -320,332.55376 -128,0 "
         transform="rotate(60,-320,-554.25626)"
         id="polygon19"
         style="fill:url(#linear-gradient-96af2d924a4fbf5b015c244addc578a8-2)" /><polygon
         fill="url(#linear-gradient-33ff75d118a188d564af252422e7cc92)"
         points="-304,-304.84094 -176,-526.54345 384,443.40501 128,443.40501 -4.0726089e-14,221.7025 -128,443.40501 -256,443.40501 -320,332.55376 -128,0 "
         transform="rotate(120,0,-369.50417)"
         id="polygon20"
         style="fill:url(#linear-gradient-33ff75d118a188d564af252422e7cc92-2)" /><polygon
         fill="url(#linear-gradient-2a0b6b52f041088f95dc76196e6b4d88)"
         points="-304,-304.84094 -176,-526.54345 384,443.40501 128,443.40501 -4.0726089e-14,221.7025 -128,443.40501 -256,443.40501 -320,332.55376 -128,0 "
         transform="rotate(180,160,-277.12813)"
         id="polygon21"
         style="fill:url(#linear-gradient-2a0b6b52f041088f95dc76196e6b4d88-9)" /><polygon
         fill="url(#linear-gradient-c6751d2115edfa2506ed6789e247b928)"
         points="-304,-304.84094 -176,-526.54345 384,443.40501 128,443.40501 -4.0726089e-14,221.7025 -128,443.40501 -256,443.40501 -320,332.55376 -128,0 "
         transform="rotate(-120,320,-184.75209)"
         id="polygon22"
         style="fill:url(#linear-gradient-c6751d2115edfa2506ed6789e247b928-3)" /><polygon
         fill="url(#linear-gradient-6b2d1737e4a2ebfe17f3769056568c22)"
         points="-304,-304.84094 -176,-526.54345 384,443.40501 128,443.40501 -4.0726089e-14,221.7025 -128,443.40501 -256,443.40501 -320,332.55376 -128,0 "
         transform="rotate(-60,640,0)"
         id="polygon23"
         style="fill:url(#linear-gradient-6b2d1737e4a2ebfe17f3769056568c22-4)" /></g></g><g
     inkscape:groupmode="layer"
     id="layer2"
     inkscape:label="Firefox Fox"
     transform="matrix(0.98979591,0,0,0.98979591,0.05102045,0.05102044)"><path
       id="body-outer-ring-shadow"
       d="m 478.711,166.353 c -10.445,-25.124 -31.6,-52.248 -48.212,-60.821 13.52,26.505 21.345,53.093 24.335,72.936 0,-0.058 0.011,0.048 0.036,0.226 0.012,0.085 0.027,0.174 0.04,0.259 22.675,61.47 10.322,123.978 -7.479,162.175 -27.539,59.1 -94.215,119.67 -198.576,116.716 C 136.1,454.651 36.766,370.988 18.223,261.41 c -3.379,-17.28 0,-26.054 1.7,-40.084 -2.071,10.816 -2.86,13.94 -3.9,33.157 0,0.41 -0.025,0.816 -0.025,1.227 C 16,388.418 123.6,496 256.324,496 c 118.865,0 217.56,-86.288 236.882,-199.63 0.407,-3.076 0.733,-6.168 1.092,-9.271 4.777,-41.21 -0.53,-84.525 -15.587,-120.746 z"
       fill="url(#c)"
       style="fill:url(#c)"
       inkscape:label="body-outer-ring-shadow"
       transform="matrix(1.0208255,0,0,0.98790583,-11.329125,4.9987118)" /><path
       id="tail-tip"
       d="m 361.922,194.6 c 0.524,0.368 1,0.734 1.493,1.1 a 130.706,130.706 0 0 0 -22.31,-29.112 C 266.4,91.892 321.516,4.626 330.811,0.194 c 0.027,-0.036 0.083,-0.117 0.1,-0.136 -60.37,35.356 -80.85,100.761 -82.732,133.484 2.8,-0.194 5.592,-0.429 8.442,-0.429 45.051,0 84.289,24.77 105.301,61.487 z"
       fill="url(#d)"
       style="fill:url(#d)"
       transform="matrix(1.0208255,0,0,0.98790583,-11.329125,4.9987118)" /><path
       id="ear"
       d="m 170.829,151.036 a 244.042,244.042 0 0 1 4.981,3.3 111.338,111.338 0 0 1 -0.674,-58.732 c -24.688,11.241 -43.89,29.01 -57.85,44.7 1.155,-0.033 36.014,-0.66 53.543,10.732 z"
       fill="url(#g)"
       style="fill:url(#g)"
       transform="matrix(1.0208255,0,0,0.98790583,-11.329125,4.9987118)" /><path
       id="body"
       d="m 18.223,261.41 c 18.543,109.578 117.877,193.241 230.632,196.434 104.361,2.954 171.037,-57.62 198.576,-116.716 17.8,-38.2 30.154,-100.7 7.479,-162.175 l -0.008,-0.026 -0.032,-0.233 c -0.025,-0.178 -0.04,-0.284 -0.036,-0.226 0,0.039 0.015,0.136 0.047,0.4 8.524,55.661 -19.79,109.584 -64.051,146.044 l -0.133,0.313 c -86.245,70.223 -168.774,42.368 -185.484,30.966 a 144.108,144.108 0 0 1 -3.5,-1.743 c -50.282,-24.029 -71.054,-69.838 -66.6,-109.124 -42.457,0 -56.934,-35.809 -56.934,-35.809 0,0 38.119,-27.179 88.358,-3.541 46.53,21.893 90.228,3.543 90.233,3.541 -0.089,-1.952 -41.917,-18.59 -58.223,-34.656 -8.713,-8.584 -12.85,-12.723 -16.514,-15.828 a 71.355,71.355 0 0 0 -6.225,-4.7 282.929,282.929 0 0 0 -4.981,-3.3 c -17.528,-11.392 -52.388,-10.765 -53.543,-10.735 h -0.111 c -9.527,-12.067 -8.855,-51.873 -8.312,-60.184 -0.114,-0.515 -7.107,3.63 -8.023,4.255 a 175.073,175.073 0 0 0 -23.486,20.12 210.478,210.478 0 0 0 -22.442,26.919 c 0,0.012 -0.007,0.026 -0.011,0.038 0,-0.013 0.007,-0.026 0.011,-0.038 a 202.838,202.838 0 0 0 -32.247,72.805 c -0.115,0.521 -8.65,37.842 -4.44,57.199 z"
       fill="url(#h)"
       style="fill:url(#h)"
       transform="matrix(1.0208255,0,0,0.98790583,-11.329125,4.9987118)" /><path
       id="tail-flame"
       d="m 341.105,166.587 a 130.706,130.706 0 0 1 22.31,29.112 c 1.323,0.994 2.559,1.985 3.608,2.952 54.482,50.2 25.936,121.2 23.807,126.26 44.261,-36.46 72.575,-90.383 64.051,-146.044 C 427.706,111.135 381.627,83.823 344,24.355 c -1.9,-3.007 -3.805,-6.022 -5.661,-9.2 a 73.716,73.716 0 0 1 -2.646,-4.972 43.7,43.7 0 0 1 -3.593,-9.506 0.626,0.626 0 0 0 -0.546,-0.644 0.818,0.818 0 0 0 -0.451,0 c -0.034,0.012 -0.084,0.051 -0.12,0.065 -0.053,0.021 -0.12,0.069 -0.176,0.1 -9.291,4.428 -64.407,91.694 10.298,166.389 z"
       fill="url(#i)"
       style="fill:url(#i)"
       transform="matrix(1.0208255,0,0,0.98790583,-11.329125,4.9987118)" /><path
       id="tail-small"
       d="m 367.023,198.651 c -1.049,-0.967 -2.285,-1.958 -3.608,-2.952 -0.489,-0.368 -0.969,-0.734 -1.493,-1.1 -12.832,-9.014 -35.81,-17.917 -57.947,-14.067 86.441,43.214 63.235,192.026 -56.545,186.408 a 106.743,106.743 0 0 1 -31.271,-6.031 134.51,134.51 0 0 1 -7.059,-2.886 c -1.356,-0.618 -2.711,-1.243 -4.05,-1.935 0.048,0.033 0.114,0.07 0.163,0.1 16.71,11.4 99.239,39.257 185.484,-30.966 l 0.133,-0.313 c 2.129,-5.054 30.675,-76.057 -23.807,-126.258 z"
       fill="url(#j)"
       style="fill:url(#j)"
       transform="matrix(1.0208255,0,0,0.98790583,-11.329125,4.9987118)" /><path
       id="cheek-tufts"
       d="m 148.439,277.443 c 0,0 11.093,-41.335 79.432,-41.335 7.388,0 28.509,-20.615 28.9,-26.593 0.391,-5.978 -43.7,18.352 -90.233,-3.541 -50.239,-23.638 -88.358,3.541 -88.358,3.541 0,0 14.477,35.809 56.934,35.809 -4.453,39.286 16.319,85.1 66.6,109.124 1.124,0.537 2.18,1.124 3.334,1.639 -29.348,-15.169 -53.582,-43.834 -56.609,-78.644 z"
       fill="url(#k)"
       style="fill:url(#k)"
       transform="matrix(1.0208255,0,0,0.98790583,-11.329125,4.9987118)" /><path
       id="overlay-green"
       d="m 478.711,166.353 c -10.445,-25.124 -31.6,-52.248 -48.212,-60.821 13.52,26.505 21.345,53.093 24.335,72.936 0,0.039 0.015,0.136 0.047,0.4 C 427.706,111.135 381.627,83.823 344,24.355 c -1.9,-3.007 -3.805,-6.022 -5.661,-9.2 a 73.716,73.716 0 0 1 -2.646,-4.972 43.7,43.7 0 0 1 -3.593,-9.506 0.626,0.626 0 0 0 -0.546,-0.644 0.818,0.818 0 0 0 -0.451,0 c -0.034,0.012 -0.084,0.051 -0.12,0.065 -0.053,0.021 -0.12,0.069 -0.176,0.1 0.027,-0.036 0.083,-0.117 0.1,-0.136 -60.37,35.356 -80.85,100.761 -82.732,133.484 2.8,-0.194 5.592,-0.429 8.442,-0.429 45.053,0 84.291,24.77 105.3,61.484 -12.832,-9.014 -35.81,-17.917 -57.947,-14.067 86.441,43.214 63.235,192.026 -56.545,186.408 a 106.743,106.743 0 0 1 -31.271,-6.031 134.51,134.51 0 0 1 -7.059,-2.886 c -1.356,-0.618 -2.711,-1.243 -4.05,-1.935 0.048,0.033 0.114,0.07 0.163,0.1 a 144.108,144.108 0 0 1 -3.5,-1.743 c 1.124,0.537 2.18,1.124 3.334,1.639 -29.35,-15.168 -53.584,-43.833 -56.611,-78.643 0,0 11.093,-41.335 79.432,-41.335 7.388,0 28.509,-20.615 28.9,-26.593 -0.089,-1.952 -41.917,-18.59 -58.223,-34.656 -8.713,-8.584 -12.85,-12.723 -16.514,-15.828 a 71.355,71.355 0 0 0 -6.225,-4.7 111.338,111.338 0 0 1 -0.674,-58.732 c -24.688,11.241 -43.89,29.01 -57.85,44.7 h -0.111 c -9.527,-12.067 -8.855,-51.873 -8.312,-60.184 -0.114,-0.515 -7.107,3.63 -8.023,4.255 A 175.073,175.073 0 0 0 77.345,104.49 210.478,210.478 0 0 0 54.91,131.406 c 0,0.012 -0.007,0.026 -0.011,0.038 0,-0.013 0.007,-0.026 0.011,-0.038 a 202.838,202.838 0 0 0 -32.247,72.805 c -0.115,0.521 -0.212,1.061 -0.324,1.586 -0.452,2.116 -2.486,12.853 -2.77,15.156 -0.022,0.177 0.021,-0.176 0,0 a 279.565,279.565 0 0 0 -3.544,33.53 c 0,0.41 -0.025,0.816 -0.025,1.227 C 16,388.418 123.6,496 256.324,496 c 118.865,0 217.56,-86.288 236.882,-199.63 0.407,-3.076 0.733,-6.168 1.092,-9.271 4.777,-41.21 -0.53,-84.525 -15.587,-120.746 z m -23.841,12.341 c 0.012,0.085 0.027,0.174 0.04,0.259 l -0.008,-0.026 z"
       fill="url(#l)"
       style="fill:url(#l)"
       transform="matrix(1.0208255,0,0,0.98790583,-11.329125,4.9987118)" /></g></svg>
